<?xml version="1.0" encoding="UTF-8"?>
<svg version="1.1" xmlns="http://www.w3.org/2000/svg" width="512" height="512">
<path d="M0 0 C1.15396271 0.00215515 2.30792542 0.0043103 3.49685669 0.00653076 C20.02513746 0.05612521 36.19577676 0.36303288 52.5 3.3125 C53.61068848 3.50054199 54.72137695 3.68858398 55.86572266 3.88232422 C94.28491799 10.50596001 130.43554055 24.4325521 161.5 48.3125 C157.53670427 57.20927322 149.48423644 64.48394683 142.96875 71.5625 C140.55621896 74.24987634 138.2674379 77.00215444 136 79.8125 C132.16280969 84.56845419 128.10614899 89.06754801 123.96875 93.5625 C121.55621896 96.24987634 119.2674379 99.00215444 117 101.8125 C113.17204837 106.55700343 109.12807239 111.04727331 104.99609375 115.52734375 C101.64718384 119.26407734 98.52130909 123.1621326 95.41015625 127.09765625 C93.5 129.3125 93.5 129.3125 90.5 131.3125 C89.37078125 130.58546875 89.37078125 130.58546875 88.21875 129.84375 C52.68846896 107.42172798 10.55287082 95.91448646 -31.30322266 104.81201172 C-66.75637386 112.88924666 -98.29771797 133.46558245 -118.1875 164.1875 C-119.66068345 166.54206139 -121.08808963 168.9207895 -122.5 171.3125 C-122.8412793 171.88129883 -123.18255859 172.45009766 -123.53417969 173.03613281 C-145.39875494 209.92344972 -149.80912235 256.6352913 -139.80615234 297.93774414 C-129.53828098 337.35194492 -107.06021957 371.51324082 -71.6875 392.5625 C-58.33183654 399.85569506 -44.44392173 405.38534007 -29.5 408.3125 C-28.37335938 408.53679687 -27.24671875 408.76109375 -26.0859375 408.9921875 C15.74368928 415.88510568 58.98871857 404.92870483 93.375 380.625 C104.97654149 372.24373933 116.02366251 363.05851589 126.5 353.3125 C129.88758344 354.7801008 132.09883382 356.66324088 134.69848633 359.26806641 C135.51646194 360.08296539 136.33443756 360.89786438 137.17720032 361.73745728 C138.05329453 362.620737 138.92938873 363.50401672 139.83203125 364.4140625 C141.19698982 365.7797084 141.19698982 365.7797084 142.58952332 367.17294312 C144.5166559 369.10163856 146.44038939 371.03364 148.36157227 372.96826172 C150.80395241 375.42752351 153.25275406 377.88026062 155.703969 380.33071327 C158.06195736 382.68904211 160.41566774 385.05161635 162.76953125 387.4140625 C163.63955276 388.28519684 164.50957428 389.15633118 165.40596008 390.05386353 C169.76081052 394.44229171 173.96352585 398.89779024 177.99543762 403.58456421 C179.94806498 405.82708651 182.01124184 407.93679846 184.12109375 410.03125 C185.30541992 411.21074219 185.30541992 411.21074219 186.51367188 412.4140625 C187.31353516 413.20554687 188.11339844 413.99703125 188.9375 414.8125 C189.76443359 415.63492187 190.59136719 416.45734375 191.44335938 417.3046875 C193.45994959 419.30962113 195.47885236 421.31216253 197.5 423.3125 C195.66980022 426.53649652 193.83716611 429.22503925 191.20703125 431.8359375 C190.58103027 432.46081055 189.9550293 433.08568359 189.31005859 433.72949219 C188.65086426 434.37563477 187.99166992 435.02177734 187.3125 435.6875 C186.292771 436.69538574 186.292771 436.69538574 185.25244141 437.72363281 C180.80446662 442.09592914 176.2852371 446.31113031 171.5 450.3125 C170.12908203 451.51712891 170.12908203 451.51712891 168.73046875 452.74609375 C138.23907895 479.39475944 101.3206279 497.84544343 61.8125 506.5625 C60.77722168 506.79646484 59.74194336 507.03042969 58.67529297 507.27148438 C38.55595063 511.49186032 18.19085631 512.81791156 -2.32421875 512.70361328 C-5.76341974 512.68743688 -9.20145755 512.70363646 -12.640625 512.72265625 C-30.64799061 512.74015854 -48.27800809 511.20183471 -65.8125 506.9375 C-66.72016113 506.72182373 -67.62782227 506.50614746 -68.56298828 506.28393555 C-71.21326762 505.64385138 -73.85723441 504.98285251 -76.5 504.3125 C-77.60239014 504.03865479 -77.60239014 504.03865479 -78.72705078 503.75927734 C-105.34932327 497.02127288 -131.24116685 484.30793932 -153.5 468.3125 C-154.53253906 467.57386719 -155.56507813 466.83523438 -156.62890625 466.07421875 C-164.21779407 460.50375742 -171.41227093 454.50023491 -178.5 448.3125 C-179.0048291 447.87228516 -179.5096582 447.43207031 -180.02978516 446.97851562 C-185.28727698 442.36722486 -190.28714312 437.69918769 -194.78125 432.3359375 C-195.97272942 430.93324128 -197.20550961 429.56499577 -198.46875 428.2265625 C-245.29068079 378.5206722 -262.43651792 309.74372103 -260.5625 243.25512695 C-259.2905664 203.72084716 -248.15996383 165.07935413 -229.5 130.3125 C-229.18740234 129.72597656 -228.87480469 129.13945312 -228.55273438 128.53515625 C-219.32855541 111.3854405 -207.79802504 96.08505434 -194.6875 81.72265625 C-192.56733383 79.38668746 -190.5030269 77.00923125 -188.4375 74.625 C-184.73565464 70.46586786 -180.76073458 66.8848506 -176.5 63.3125 C-175.57703125 62.50167969 -174.6540625 61.69085938 -173.703125 60.85546875 C-148.39066376 38.7206751 -118.50528376 22.44261275 -86.5 12.3125 C-85.22769531 11.90837891 -85.22769531 11.90837891 -83.9296875 11.49609375 C-74.16658552 8.4432809 -64.37408971 5.92006526 -54.3125 4.0625 C-53.49539551 3.91143799 -52.67829102 3.76037598 -51.83642578 3.60473633 C-49.06289119 3.12535664 -46.28669985 2.70869355 -43.5 2.3125 C-42.2507373 2.13372314 -41.00147461 1.95494629 -39.71435547 1.77075195 C-26.49686473 0.02371714 -13.31478622 -0.04464004 0 0 Z " fill="#000000" transform="translate(287.5,-0.3125)"/>
<path d="M0 0 C4.05730536 0.54599469 6.12704635 2.63878528 9.0625 5.375 C9.91972656 6.16648437 10.77695312 6.95796875 11.66015625 7.7734375 C12.43230469 8.50820312 13.20445312 9.24296875 14 10 C14.92619141 10.76183594 14.92619141 10.76183594 15.87109375 11.5390625 C17 13 17 13 16.9375 14.90234375 C15.71423492 17.63939938 14.06407699 19.38733553 12 21.5625 C8.73878098 25.07576907 5.62354927 28.63493223 2.625 32.375 C-1.05571847 36.92780507 -4.92648648 41.23417411 -8.91137695 45.5168457 C-12.71385014 49.62760957 -16.24263299 53.92266523 -19.75390625 58.28515625 C-22.88167179 62.06567286 -26.21273883 65.64480875 -29.53515625 69.25390625 C-31.92707297 71.91875166 -34.19254884 74.64831825 -36.4375 77.4375 C-41.35951554 83.54150493 -46.65154204 89.27165157 -52 95 C-58.00073223 90.68339698 -63.54006063 85.97966692 -69 81 C-66.38611916 76.90272684 -63.65303345 73.36820469 -60.3125 69.8125 C-56.92997824 66.15304664 -53.68365267 62.44710008 -50.5625 58.5625 C-46.90493736 54.02763839 -43.05382973 49.74463817 -39.08837891 45.48291016 C-35.28601193 41.37220724 -31.75729408 37.07724416 -28.24609375 32.71484375 C-25.9116941 29.89326505 -23.48009402 27.19409288 -21 24.5 C-16.85818487 19.99858542 -12.9593002 15.35195362 -9.1171875 10.59375 C-6.16876275 6.98165769 -3.10168208 3.48066574 0 0 Z " fill="#000000" transform="translate(464,62)"/>
</svg>
